<?xml version="1.0" encoding="utf-8"?>
<!-- Generator: Adobe Illustrator 26.0.3, SVG Export Plug-In . SVG Version: 6.00 Build 0)  -->
<svg version="1.0" id="katman_1" xmlns="http://www.w3.org/2000/svg" xmlns:xlink="http://www.w3.org/1999/xlink" x="0px" y="0px"
	 viewBox="0 0 600 450" style="enable-background:new 0 0 600 450;" xml:space="preserve">
<style type="text/css">
	.st0{fill:#EBAF04;}
</style>
<g>
	<path d="M149.3,158.7c-17.9,0-29.4,5.1-39,17.3v-13.3H75.7v164c0,0,0.6,0.3,2.4,0.6c2.4,0.6,15.1,3.3,24.5-4.5
		c8.2-7,10-15.1,10-24.2v-23.6c10,10.6,21.2,15.1,36.9,15.1c33.9,0,59.9-27.5,59.9-64.2C209.5,186.2,184.4,158.7,149.3,158.7z
		 M142.6,258.9c-19.1,0-34.2-15.7-34.2-34.8c0-18.8,17.9-33.9,34.2-33.9c19.4,0,34.2,14.8,34.2,34.2S161.7,258.9,142.6,258.9z"/>
	<path d="M258.5,221.9c0,14.2,1.5,31.5,15.4,50.2c0.3,0.3,0.9,1.2,0.9,1.2c-5.8,9.7-12.7,16.3-22.1,16.3c-7.3,0-14.5-3.9-20.6-10.6
		c-6.4-7.3-9.4-16.6-9.4-26.6V121.8h35.4L258.5,221.9z"/>
	<polygon points="486.4,217.4 523.7,162.6 480.7,162.6 465.2,185.3 	"/>
	<path d="M465.2,263.4l7.3,10c7,10.9,16,16.3,26.6,16.3c11.2-0.3,19.1-10,22.1-13.6c0,0-5.4-4.8-12.4-13
		c-9.4-10.9-21.8-30.9-22.1-31.8L465.2,263.4z"/>
</g>
<path d="M359,250.4c-7.3,6.7-12.1,10.3-22.1,10.3c-17.9,0-28.1-12.7-29.7-26.6H402c0.6-1.8,0.9-4.2,0.9-8.2
	c0-38.4-28.1-67.2-65.1-67.2c-35.1,0-63.9,29.4-63.9,66c0,36.3,28.8,65.1,64.8,65.1c25.1,0,46.9-14.2,58.7-39.3H359z M338.1,187.7
	c15.7,0,27.5,10.3,30.3,23.9h-59.9C311.5,197.4,322.7,187.7,338.1,187.7z"/>
<polygon class="st0" points="433.8,285.8 390.8,285.8 432.6,224.4 390.8,162.6 433.8,162.6 475.2,224.4 "/>
</svg>
